<svg width="88" height="82" viewBox="0 0 88 82" fill="none" xmlns="http://www.w3.org/2000/svg">
<rect width="88" height="82" fill="#FE7134"/>
<path d="M53.9062 66.6562C53.5938 66.0312 53.3281 65.3125 53.1094 64.5C52.8906 63.6875 52.7031 62.8281 52.5469 61.9219C51.8281 62.7031 51 63.4375 50.0625 64.125C49.125 64.8125 48.0938 65.4062 46.9688 65.9062C45.8125 66.4375 44.5469 66.8438 43.1719 67.125C41.7969 67.4375 40.3125 67.5938 38.7188 67.5938C36.125 67.5938 33.7344 67.2188 31.5469 66.4688C29.3906 65.7188 27.5312 64.6719 25.9688 63.3281C24.4062 61.9844 23.1875 60.3906 22.3125 58.5469C21.4375 56.6719 21 54.6406 21 52.4531C21 49.6406 21.5469 47.1562 22.6406 45C23.7344 42.8125 25.375 41.0156 27.5625 39.6094C29.5312 38.3281 31.9531 37.3594 34.8281 36.7031C37.7344 36.0156 41.0625 35.6719 44.8125 35.6719H52.0781V32.6719C52.0781 31.4844 51.8906 30.4219 51.5156 29.4844C51.1406 28.5156 50.5781 27.6875 49.8281 27C49.0469 26.2812 48.0625 25.7344 46.875 25.3594C45.7188 24.9531 44.3594 24.75 42.7969 24.75C41.4219 24.75 40.2344 24.9219 39.2344 25.2656C38.2344 25.5781 37.4219 26.0312 36.7969 26.625C36.2344 27.1562 35.8125 27.7969 35.5312 28.5469C35.2812 29.2969 35.1562 30.125 35.1562 31.0312H22.125C22.125 28.875 22.5938 26.8281 23.5312 24.8906C24.5 22.9531 25.9062 21.25 27.75 19.7812C29.5625 18.3125 31.7812 17.1562 34.4062 16.3125C37.0625 15.4375 40.0938 15 43.5 15C46.5625 15 49.4062 15.375 52.0312 16.125C54.6875 16.875 56.9844 17.9844 58.9219 19.4531C60.8594 20.9219 62.375 22.7812 63.4688 25.0312C64.5625 27.25 65.1094 29.8281 65.1094 32.7656V54.5156C65.1094 57.2344 65.2812 59.4844 65.625 61.2656C65.9688 63.0469 66.4688 64.5781 67.125 65.8594V66.6562H53.9062ZM41.4844 57.5156C42.7969 57.5156 44.0156 57.3594 45.1406 57.0469C46.2656 56.7344 47.2812 56.3281 48.1875 55.8281C49.0938 55.3281 49.875 54.7656 50.5312 54.1406C51.1875 53.4844 51.7031 52.8281 52.0781 52.1719V43.4531H45.4219C43.3906 43.4531 41.6562 43.6562 40.2188 44.0625C38.7812 44.4375 37.6094 44.9688 36.7031 45.6562C35.7969 46.375 35.125 47.2344 34.6875 48.2344C34.25 49.2031 34.0312 50.2656 34.0312 51.4219C34.0312 52.3281 34.1875 53.1719 34.5 53.9531C34.8438 54.7031 35.3281 55.3438 35.9531 55.875C36.5781 56.375 37.3438 56.7812 38.25 57.0938C39.1875 57.375 40.2656 57.5156 41.4844 57.5156Z" fill="white"/>
</svg>
